<svg width="600" height="500.0000000000001" xmlns="http://www.w3.org/2000/svg">
 <!--
        Map Node and Path IDs correspond to the C data structure.
        Node ID: "node-X" where X is the index (0-9)
        Path ID: "path-X-Y" where X and Y are the connected node indices.
    -->

 <!-- Paths -->
 <!-- Nodes and Labels -->
 <!-- 0: 主门 -->
 <!-- 1: 主楼 -->
 <!-- 2: 体育场 -->
 <!-- 3: 联通广场 -->
 <!-- 4: 汇文楼 -->
 <!-- 5: 新图书馆 -->
 <!-- 6: A区食堂 -->
 <!-- 7: B区食堂 -->
 <!-- 8: C区食堂 -->
 <!-- 9: 艺术楼 -->

    <style>
        .bg { fill: white; }
        .path { stroke: #d0d9e0; stroke-width: 3; stroke-linecap: round; transition: stroke 0.3s ease; }
        .node { fill: #ffffff; stroke: #a0b0c0; stroke-width: 2; transition: fill 0.3s ease, stroke 0.3s ease; }
        .label { font-family: 'Noto Sans SC', sans-serif; font-size: 12px; fill: #555; text-anchor: middle; pointer-events: none; }
        
        /* Highlight styles */
        .path.highlight { stroke: #e74c3c; stroke-width: 5; }
        .node.highlight { fill: #e74c3c; stroke: #c0392b; }
    </style>

    <rect width="100%" height="100%" class="bg"/>

    <line y2="268.5" x2="153.5" y1="268.5" x1="73.5" class="path" id="path-0-1"/>
    <line y2="168.5" x2="153.5" y1="268.5" x1="73.5" class="path" id="path-0-2"/>
    <line y2="268.5" x2="153.5" y1="168.5" x1="153.5" class="path" id="path-1-2"/>
    <line y2="218.5" x2="253.5" y1="268.5" x1="153.5" class="path" id="path-1-3"/>
    <line y2="318.5" x2="223.5" y1="268.5" x1="153.5" class="path" id="path-1-5"/>
    <line y2="168.5" x2="393.5" y1="218.5" x1="253.5" class="path" id="path-3-4"/>
    <line y2="318.5" x2="303.5" y1="318.5" x1="223.5" class="path" id="path-5-6"/>
    <line y2="268.5" x2="393.5" y1="318.5" x1="303.5" class="path" id="path-6-7"/>
    <line y2="268.5" x2="393.5" y1="168.5" x1="393.5" class="path" id="path-4-7"/>
    <line y2="218.5" x2="473.5" y1="168.5" x1="393.5" class="path" id="path-4-9"/>
    <line y2="218.5" x2="473.5" y1="268.5" x1="393.5" class="path" id="path-7-9"/>
    <line y2="168.5" x2="523.5" y1="218.5" x1="473.5" class="path" id="path-8-9"/>

    <circle r="8" cy="268.5" cx="73.5" class="node" id="node-0"/>
    <text y="293.5" x="73.5" class="label">主门</text>

    <circle r="8" cy="268.5" cx="153.5" class="node" id="node-1"/>
    <text y="293.5" x="153.5" class="label">主楼</text>

    <circle r="8" cy="168.5" cx="153.5" class="node" id="node-2"/>
    <text x="153.5" y="152" class="label">体育场</text>

    <circle r="8" cy="218.5" cx="253.5" class="node" id="node-3"/>
    <text y="243.5" x="253.5" class="label">联通广场</text>

    <circle r="8" cy="168.5" cx="393.5" class="node" id="node-4"/>
    <text y="153.5" x="393.5" class="label">汇文楼</text>

    <circle r="8" cy="318.5" cx="223.5" class="node" id="node-5"/>
    <text y="343.5" x="223.5" class="label">新图书馆</text>

    <circle r="8" cy="318.5" cx="303.5" class="node" id="node-6"/>
    <text y="343.5" x="303.5" class="label">A区食堂</text>

    <circle r="8" cy="268.5" cx="393.5" class="node" id="node-7"/>
    <text y="293.5" x="393.5" class="label">B区食堂</text>

    <circle r="8" cy="168.5" cx="523.5" class="node" id="node-8"/>
    <text y="148.5" x="523.5" class="label">C区食堂</text>

    <circle r="8" cy="218.5" cx="473.5" class="node" id="node-9"/>
    <text y="243.5" x="473.5" class="label">艺术楼</text>

</svg>